<mxfile host="app.diagrams.net" modified="2023-06-18T15:37:25.624Z" agent="Mozilla/5.0 (Windows NT 10.0; Win64; x64) AppleWebKit/537.36 (KHTML, like Gecko) Chrome/104.0.0.0 Safari/537.36" etag="cCRa0qCDFjHZGE7bzNT5" version="21.5.0" type="device">
  <diagram name="Page-1" id="929967ad-93f9-6ef4-fab6-5d389245f69c">
    <mxGraphModel dx="1050" dy="515" grid="1" gridSize="10" guides="1" tooltips="1" connect="1" arrows="1" fold="1" page="1" pageScale="1.5" pageWidth="1169" pageHeight="826" background="none" math="0" shadow="0">
      <root>
        <mxCell id="0" style=";html=1;" />
        <mxCell id="1" style=";html=1;" parent="0" />
        <mxCell id="wPgKI7FTaY30ZERlXGRs-22" value="Компонент доступа &lt;br&gt;к данным" style="html=1;dropTarget=0;" parent="1" vertex="1">
          <mxGeometry x="890" y="565" width="160" height="70" as="geometry" />
        </mxCell>
        <mxCell id="wPgKI7FTaY30ZERlXGRs-23" value="" style="shape=module;jettyWidth=8;jettyHeight=4;" parent="wPgKI7FTaY30ZERlXGRs-22" vertex="1">
          <mxGeometry x="1" width="20" height="20" relative="1" as="geometry">
            <mxPoint x="-27" y="7" as="offset" />
          </mxGeometry>
        </mxCell>
        <mxCell id="wPgKI7FTaY30ZERlXGRs-31" value="Компонент &lt;br&gt;транспортного &lt;br&gt;слоя" style="html=1;dropTarget=0;" parent="1" vertex="1">
          <mxGeometry x="890" y="20" width="160" height="70" as="geometry" />
        </mxCell>
        <mxCell id="wPgKI7FTaY30ZERlXGRs-32" value="" style="shape=module;jettyWidth=8;jettyHeight=4;" parent="wPgKI7FTaY30ZERlXGRs-31" vertex="1">
          <mxGeometry x="1" width="20" height="20" relative="1" as="geometry">
            <mxPoint x="-27" y="7" as="offset" />
          </mxGeometry>
        </mxCell>
        <mxCell id="Y4shtemhvU_wdh06Yezo-3" value="Сервис кураторов" style="html=1;dropTarget=0;" parent="1" vertex="1">
          <mxGeometry x="815" y="240" width="160" height="70" as="geometry" />
        </mxCell>
        <mxCell id="Y4shtemhvU_wdh06Yezo-4" value="" style="shape=module;jettyWidth=8;jettyHeight=4;" parent="Y4shtemhvU_wdh06Yezo-3" vertex="1">
          <mxGeometry x="1" width="20" height="20" relative="1" as="geometry">
            <mxPoint x="-27" y="7" as="offset" />
          </mxGeometry>
        </mxCell>
        <mxCell id="Y4shtemhvU_wdh06Yezo-5" value="Сервис животных" style="html=1;dropTarget=0;" parent="1" vertex="1">
          <mxGeometry x="1010" y="240" width="160" height="70" as="geometry" />
        </mxCell>
        <mxCell id="Y4shtemhvU_wdh06Yezo-6" value="" style="shape=module;jettyWidth=8;jettyHeight=4;" parent="Y4shtemhvU_wdh06Yezo-5" vertex="1">
          <mxGeometry x="1" width="20" height="20" relative="1" as="geometry">
            <mxPoint x="-27" y="7" as="offset" />
          </mxGeometry>
        </mxCell>
        <mxCell id="Y4shtemhvU_wdh06Yezo-9" value="Сервис приютов" style="html=1;dropTarget=0;" parent="1" vertex="1">
          <mxGeometry x="620" y="240" width="160" height="70" as="geometry" />
        </mxCell>
        <mxCell id="Y4shtemhvU_wdh06Yezo-10" value="" style="shape=module;jettyWidth=8;jettyHeight=4;" parent="Y4shtemhvU_wdh06Yezo-9" vertex="1">
          <mxGeometry x="1" width="20" height="20" relative="1" as="geometry">
            <mxPoint x="-27" y="7" as="offset" />
          </mxGeometry>
        </mxCell>
        <mxCell id="Y4shtemhvU_wdh06Yezo-15" style="edgeStyle=orthogonalEdgeStyle;rounded=0;orthogonalLoop=1;jettySize=auto;html=1;dashed=1;entryX=0.5;entryY=0;entryDx=0;entryDy=0;exitX=0.5;exitY=1;exitDx=0;exitDy=0;" parent="1" source="wPgKI7FTaY30ZERlXGRs-31" target="Y4shtemhvU_wdh06Yezo-3" edge="1">
          <mxGeometry relative="1" as="geometry">
            <mxPoint x="730" y="110" as="sourcePoint" />
            <mxPoint x="560" y="250" as="targetPoint" />
            <Array as="points">
              <mxPoint x="970" y="180" />
              <mxPoint x="895" y="180" />
            </Array>
          </mxGeometry>
        </mxCell>
        <mxCell id="Y4shtemhvU_wdh06Yezo-16" style="edgeStyle=orthogonalEdgeStyle;rounded=1;orthogonalLoop=1;jettySize=auto;html=1;dashed=1;entryX=0.5;entryY=0;entryDx=0;entryDy=0;exitX=0.5;exitY=1;exitDx=0;exitDy=0;" parent="1" source="wPgKI7FTaY30ZERlXGRs-31" target="Y4shtemhvU_wdh06Yezo-5" edge="1">
          <mxGeometry relative="1" as="geometry">
            <mxPoint x="755.04" y="110" as="sourcePoint" />
            <mxPoint x="755.04" y="250" as="targetPoint" />
            <Array as="points">
              <mxPoint x="970" y="180" />
              <mxPoint x="1090" y="180" />
            </Array>
          </mxGeometry>
        </mxCell>
        <mxCell id="Y4shtemhvU_wdh06Yezo-18" style="edgeStyle=orthogonalEdgeStyle;rounded=1;orthogonalLoop=1;jettySize=auto;html=1;dashed=1;entryX=0.5;entryY=0;entryDx=0;entryDy=0;exitX=0.5;exitY=1;exitDx=0;exitDy=0;" parent="1" source="wPgKI7FTaY30ZERlXGRs-31" target="Y4shtemhvU_wdh06Yezo-9" edge="1">
          <mxGeometry relative="1" as="geometry">
            <mxPoint x="755.04" y="110" as="sourcePoint" />
            <mxPoint x="450" y="360" as="targetPoint" />
            <Array as="points">
              <mxPoint x="970" y="180" />
              <mxPoint x="700" y="180" />
            </Array>
          </mxGeometry>
        </mxCell>
        <mxCell id="Y4shtemhvU_wdh06Yezo-26" value="" style="rounded=1;orthogonalLoop=1;jettySize=auto;html=1;endArrow=halfCircle;endFill=0;endSize=6;strokeWidth=1;sketch=0;edgeStyle=orthogonalEdgeStyle;" parent="1" edge="1">
          <mxGeometry relative="1" as="geometry">
            <mxPoint x="510" y="420" as="sourcePoint" />
            <Array as="points">
              <mxPoint x="510" y="420" />
            </Array>
            <mxPoint x="510" y="420" as="targetPoint" />
          </mxGeometry>
        </mxCell>
        <mxCell id="Y4shtemhvU_wdh06Yezo-28" value="" style="rounded=0;orthogonalLoop=1;jettySize=auto;html=1;endArrow=none;endFill=0;sketch=0;sourcePerimeterSpacing=0;targetPerimeterSpacing=0;edgeStyle=orthogonalEdgeStyle;" parent="1" source="Y4shtemhvU_wdh06Yezo-9" target="Y4shtemhvU_wdh06Yezo-30" edge="1">
          <mxGeometry relative="1" as="geometry">
            <mxPoint x="500" y="440" as="sourcePoint" />
            <Array as="points">
              <mxPoint x="700" y="460" />
              <mxPoint x="700" y="460" />
            </Array>
          </mxGeometry>
        </mxCell>
        <mxCell id="Y4shtemhvU_wdh06Yezo-31" value="" style="rounded=0;orthogonalLoop=1;jettySize=auto;html=1;endArrow=none;endFill=0;sketch=0;sourcePerimeterSpacing=0;targetPerimeterSpacing=0;edgeStyle=orthogonalEdgeStyle;" parent="1" source="Y4shtemhvU_wdh06Yezo-3" target="Y4shtemhvU_wdh06Yezo-33" edge="1">
          <mxGeometry relative="1" as="geometry">
            <mxPoint x="510" y="450" as="sourcePoint" />
            <Array as="points">
              <mxPoint x="895" y="440" />
              <mxPoint x="895" y="440" />
            </Array>
          </mxGeometry>
        </mxCell>
        <mxCell id="Y4shtemhvU_wdh06Yezo-32" value="" style="rounded=1;orthogonalLoop=1;jettySize=auto;html=1;endArrow=halfCircle;endFill=0;entryX=0.5;entryY=0.5;endSize=6;strokeWidth=1;sketch=0;edgeStyle=orthogonalEdgeStyle;exitX=0.5;exitY=0;exitDx=0;exitDy=0;" parent="1" source="wPgKI7FTaY30ZERlXGRs-22" target="Y4shtemhvU_wdh06Yezo-33" edge="1">
          <mxGeometry relative="1" as="geometry">
            <mxPoint x="695" y="630.0285714285714" as="sourcePoint" />
            <Array as="points">
              <mxPoint x="970" y="525" />
              <mxPoint x="895" y="525" />
            </Array>
          </mxGeometry>
        </mxCell>
        <mxCell id="Y4shtemhvU_wdh06Yezo-33" value="" style="ellipse;whiteSpace=wrap;html=1;align=center;aspect=fixed;resizable=0;points=[];outlineConnect=0;sketch=0;" parent="1" vertex="1">
          <mxGeometry x="890" y="415" width="10" height="10" as="geometry" />
        </mxCell>
        <mxCell id="Y4shtemhvU_wdh06Yezo-42" value="" style="rounded=0;orthogonalLoop=1;jettySize=auto;html=1;endArrow=none;endFill=0;sketch=0;sourcePerimeterSpacing=0;targetPerimeterSpacing=0;edgeStyle=orthogonalEdgeStyle;" parent="1" source="Y4shtemhvU_wdh06Yezo-5" target="Y4shtemhvU_wdh06Yezo-44" edge="1">
          <mxGeometry relative="1" as="geometry">
            <mxPoint x="1000" y="440" as="sourcePoint" />
            <Array as="points">
              <mxPoint x="1090" y="420" />
            </Array>
          </mxGeometry>
        </mxCell>
        <mxCell id="Y4shtemhvU_wdh06Yezo-44" value="" style="ellipse;whiteSpace=wrap;html=1;align=center;aspect=fixed;resizable=0;points=[];outlineConnect=0;sketch=0;direction=south;" parent="1" vertex="1">
          <mxGeometry x="1085" y="415" width="10" height="10" as="geometry" />
        </mxCell>
        <mxCell id="Y4shtemhvU_wdh06Yezo-30" value="" style="ellipse;whiteSpace=wrap;html=1;align=center;aspect=fixed;resizable=0;points=[];outlineConnect=0;sketch=0;direction=north;rotation=-101;" parent="1" vertex="1">
          <mxGeometry x="695" y="415" width="10" height="10" as="geometry" />
        </mxCell>
        <mxCell id="vhXoFkf7T3uQgVecN2_f-1" value="" style="rounded=1;orthogonalLoop=1;jettySize=auto;html=1;endArrow=halfCircle;endFill=0;endSize=6;strokeWidth=1;sketch=0;edgeStyle=orthogonalEdgeStyle;exitX=0.5;exitY=0;exitDx=0;exitDy=0;" parent="1" edge="1">
          <mxGeometry relative="1" as="geometry">
            <mxPoint x="970" y="560" as="sourcePoint" />
            <Array as="points">
              <mxPoint x="970" y="525" />
              <mxPoint x="700" y="525" />
            </Array>
            <mxPoint x="700" y="420" as="targetPoint" />
          </mxGeometry>
        </mxCell>
        <mxCell id="vY3LjCRka-Xtj4kbO-FO-1" value="Сервис закупок" style="html=1;dropTarget=0;" parent="1" vertex="1">
          <mxGeometry x="1210" y="240" width="160" height="70" as="geometry" />
        </mxCell>
        <mxCell id="vY3LjCRka-Xtj4kbO-FO-2" value="" style="shape=module;jettyWidth=8;jettyHeight=4;" parent="vY3LjCRka-Xtj4kbO-FO-1" vertex="1">
          <mxGeometry x="1" width="20" height="20" relative="1" as="geometry">
            <mxPoint x="-27" y="7" as="offset" />
          </mxGeometry>
        </mxCell>
        <mxCell id="vY3LjCRka-Xtj4kbO-FO-3" style="edgeStyle=orthogonalEdgeStyle;rounded=1;orthogonalLoop=1;jettySize=auto;html=1;dashed=1;entryX=0.5;entryY=0;entryDx=0;entryDy=0;exitX=0.5;exitY=1;exitDx=0;exitDy=0;" parent="1" source="wPgKI7FTaY30ZERlXGRs-31" target="vY3LjCRka-Xtj4kbO-FO-1" edge="1">
          <mxGeometry relative="1" as="geometry">
            <mxPoint x="980" y="100" as="sourcePoint" />
            <mxPoint x="1100" y="250" as="targetPoint" />
            <Array as="points">
              <mxPoint x="970" y="180" />
              <mxPoint x="1290" y="180" />
            </Array>
          </mxGeometry>
        </mxCell>
        <mxCell id="vY3LjCRka-Xtj4kbO-FO-6" value="" style="rounded=0;orthogonalLoop=1;jettySize=auto;html=1;endArrow=none;endFill=0;sketch=0;sourcePerimeterSpacing=0;targetPerimeterSpacing=0;edgeStyle=orthogonalEdgeStyle;exitX=0.5;exitY=1;exitDx=0;exitDy=0;" parent="1" source="vY3LjCRka-Xtj4kbO-FO-8" edge="1">
          <mxGeometry relative="1" as="geometry">
            <mxPoint x="1290" y="310" as="sourcePoint" />
            <Array as="points" />
            <mxPoint x="1290" y="415" as="targetPoint" />
          </mxGeometry>
        </mxCell>
        <mxCell id="vY3LjCRka-Xtj4kbO-FO-7" value="" style="rounded=1;orthogonalLoop=1;jettySize=auto;html=1;endArrow=halfCircle;endFill=0;entryX=0.5;entryY=0.5;endSize=6;strokeWidth=1;sketch=0;edgeStyle=orthogonalEdgeStyle;exitX=0.5;exitY=0;exitDx=0;exitDy=0;" parent="1" source="wPgKI7FTaY30ZERlXGRs-22" edge="1">
          <mxGeometry relative="1" as="geometry">
            <mxPoint x="1170" y="565" as="sourcePoint" />
            <Array as="points">
              <mxPoint x="970" y="525" />
              <mxPoint x="1290" y="525" />
            </Array>
            <mxPoint x="1290" y="420" as="targetPoint" />
          </mxGeometry>
        </mxCell>
        <mxCell id="vY3LjCRka-Xtj4kbO-FO-9" value="" style="rounded=0;orthogonalLoop=1;jettySize=auto;html=1;endArrow=none;endFill=0;sketch=0;sourcePerimeterSpacing=0;targetPerimeterSpacing=0;edgeStyle=orthogonalEdgeStyle;exitX=0.5;exitY=1;exitDx=0;exitDy=0;" parent="1" source="vY3LjCRka-Xtj4kbO-FO-1" target="vY3LjCRka-Xtj4kbO-FO-8" edge="1">
          <mxGeometry relative="1" as="geometry">
            <mxPoint x="1290" y="310" as="sourcePoint" />
            <Array as="points" />
            <mxPoint x="1290" y="415" as="targetPoint" />
          </mxGeometry>
        </mxCell>
        <mxCell id="vY3LjCRka-Xtj4kbO-FO-8" value="" style="ellipse;whiteSpace=wrap;html=1;align=center;aspect=fixed;resizable=0;points=[];outlineConnect=0;sketch=0;" parent="1" vertex="1">
          <mxGeometry x="1285" y="415" width="10" height="10" as="geometry" />
        </mxCell>
        <mxCell id="vY3LjCRka-Xtj4kbO-FO-10" value="" style="rounded=1;orthogonalLoop=1;jettySize=auto;html=1;endArrow=halfCircle;endFill=0;entryX=0.5;entryY=0.5;endSize=6;strokeWidth=1;sketch=0;edgeStyle=orthogonalEdgeStyle;" parent="1" edge="1">
          <mxGeometry relative="1" as="geometry">
            <mxPoint x="1060" y="525" as="sourcePoint" />
            <Array as="points">
              <mxPoint x="1090" y="525" />
            </Array>
            <mxPoint x="1090" y="420" as="targetPoint" />
          </mxGeometry>
        </mxCell>
      </root>
    </mxGraphModel>
  </diagram>
</mxfile>
